<svg xmlns="http://www.w3.org/2000/svg" xmlns:xlink="http://www.w3.org/1999/xlink" viewBox="0 0 810.8 2854.83"><defs><style>.cls-1{fill:#c63f3e;}.cls-2{fill:none;stroke:#c63f3e;stroke-miterlimit:10;}</style></defs><path class="cls-1" d="M354.8,2480.25a487.24,487.24,0,0,0,17,59.47c3.35,9.37,6.9,18.73,11,27.82,3.84,8.6,8.62,16.38,15.46,22.91,3.3,3.16,6.81,6.12,9.87,9.52a47,47,0,0,1,7.77,12.35,128,128,0,0,1,8.48,26.35c1.69,8.35,2,17.62-2.62,25.14s-13,11.24-19.24,17c-11.9,10.95-14.92,28.7-11.24,43.95,4.24,17.56,16.34,32,29.13,44.18,7.31,7,15.05,13.47,22.42,20.38,6.46,6.06,16.14,13.53,12,23.49-3.67,8.86-13.45,12-21.89,14.52-10.08,3-20.18,5.9-30.27,8.86-17.16,5-37.17,9.14-49.21,23.57-5.16,6.19-8.67,14-8.26,22.17.25,5.07,1.83,10,3.22,14.8l4.34,15.09,4.34,15.09a1.5,1.5,0,0,0,2.89-.8l-8.92-31c-1.4-4.87-3-9.82-2.9-14.95a27.25,27.25,0,0,1,3.37-12.27c9.23-17.19,29.57-22.24,46.87-27.31l30.82-9c8.31-2.43,17.7-4.54,24-11,5.49-5.66,7.61-14,3.29-20.93-2.46-4-6.11-7.23-9.46-10.43-3.69-3.55-7.5-7-11.32-10.37-14-12.46-28.52-25.21-36.94-42.28-7.46-15.11-8.93-34.45,1.41-48.67,5.05-7,12.91-10.74,19.09-16.5a29.36,29.36,0,0,0,9.23-21.46c.17-8.64-2.23-17.18-4.9-25.32-2.81-8.54-5.79-17.29-11.41-24.44-5.94-7.54-14.17-12.83-19.62-20.82s-9-17.19-12.5-26.14a484.19,484.19,0,0,1-18.92-58.9q-1.86-7.39-3.49-14.86c-.41-1.88-3.3-1.09-2.89.8Z" transform="translate(-69.2 -2101)"/><path class="cls-1" d="M356.49,2928.13c-12.44,12.87-30.84,16.48-47.25,21.7-17.63,5.62-34.88,12.84-50.62,22.65a156.45,156.45,0,0,0-41,37.2c-11.33,14.62-20.47,30.77-28.79,47.25-4.3,8.51-8.6,17.07-12.34,25.85s-7.33,18.61-6.92,28.32a25.81,25.81,0,0,0,4.21,13.07,118.74,118.74,0,0,0,8.57,10.93A243.92,243.92,0,0,0,201,3155.73a103.11,103.11,0,0,0,21.85,16.46c8.31,4.53,17.27,7.73,26.28,10.56,17,5.35,34.61,9.6,49.49,19.88a57.92,57.92,0,0,1,16.69,17c4.26,6.94,7,15.68,5.37,23.84a18.47,18.47,0,0,1-7.06,11.32c-4,3.07-8.6,5.45-12.91,8-4.08,2.45-8.44,4.7-12.16,7.69-2.93,2.35-5.24,5.43-5.57,9.27a8.76,8.76,0,0,0,3.86,8.41c1.64,1,3.15-1.57,1.51-2.59-3.33-2.08-2.83-6.87-.86-9.71,2.55-3.7,7-5.84,10.75-8.09,4.47-2.68,9-5.31,13.4-8.06,3.65-2.28,7.13-4.9,9.36-8.65,4.25-7.15,3.7-16.25,1.16-23.88a49.24,49.24,0,0,0-12.17-19c-25.91-25.81-66.09-23.61-94.91-44.44a131.36,131.36,0,0,1-20.2-18.67c-3.15-3.47-6.19-7.05-9.18-10.66s-6-7-8.58-10.71a23.66,23.66,0,0,1-4.51-13.86,50.68,50.68,0,0,1,2.43-14.23c2.77-9.41,7.16-18.24,11.44-27,16-33,34.61-65.92,65.06-87.72,15-10.75,31.85-18.78,49.22-25,8.37-3,16.91-5.36,25.38-8,8-2.53,16-5.45,23.14-10a51.39,51.39,0,0,0,9.37-7.59c1.34-1.39-.78-3.51-2.13-2.12Z" transform="translate(-69.2 -2101)"/><path class="cls-1" d="M282.37,3279.55c9.95,54,54.48,92.61,69.1,144.74,6.11,21.78,5.89,46.17-4.89,66.51a59.26,59.26,0,0,1-22.91,23.89c-10.88,6.21-23.39,8.91-35.76,10.1-13,1.26-26.15,1-39.22,1H226.23c-7,0-14.25-.51-21.24.17-5.6.55-10,2.95-13,7.77-3.48,5.57-5.87,12-8.57,18a356.42,356.42,0,0,0-15.36,38.55c-7.93,24.84-11.41,52.16-3.76,77.54,3.9,12.9,11,24.26,18.85,35.08,7.28,10,14.64,20.28,27,24.08,6.15,1.9,12.64,2.36,19,2.89l22.31,1.84c11.12.92,23.83.69,33.89,6.25,4.46,2.46,8,6.34,8.88,11.49,1.21,7-2.44,13.86-5.91,19.63a183.92,183.92,0,0,1-23.85,31.47A192.77,192.77,0,0,1,250.42,3814c-1.46,1.27.67,3.38,2.12,2.12a192.28,192.28,0,0,0,26.92-28.67,185.85,185.85,0,0,0,11-16.1c3.17-5.2,6.2-10.83,6.88-17,2.84-25.92-35.36-24.83-51.69-26.18-7.4-.61-14.82-1.12-22.21-1.86-6.8-.68-13.78-1.86-19.7-5.48-5.61-3.42-9.85-8.64-13.76-13.82-4.14-5.47-8.2-11-11.87-16.82a94.48,94.48,0,0,1-14.06-37.79,125.33,125.33,0,0,1,1.67-41.29c2.71-13.69,7.24-27,12.48-39.85,2.79-6.86,5.79-13.63,8.87-20.37q2.19-4.79,4.41-9.57c1.36-2.93,2.67-6.06,4.86-8.48,4.74-5.24,12.82-4.11,19.19-4.11H238c13.84,0,27.74.34,41.57-.38,23.2-1.2,47.5-6.66,62.73-25.66,13.55-16.91,18-39.8,15.67-61-5.91-54.35-50.26-93.66-67.61-143.76a131.69,131.69,0,0,1-5.1-19.24c-.35-1.89-3.24-1.09-2.89.8Z" transform="translate(-69.2 -2101)"/><path class="cls-1" d="M250.49,3815.44a463.64,463.64,0,0,0-58.66,110.42,458.58,458.58,0,0,0-17.72,60.57c-4.81,22-8.35,44.48-7.42,67,.44,10.9,1.67,22.22,5.14,32.62,3.28,9.82,9.31,17.71,16.72,24.8,15.53,14.86,33.19,26.85,51.95,37.21a22.76,22.76,0,0,1,5.57,3.89c2.18,2.25,3,5.15,3.16,8.2a49,49,0,0,1-1.28,14.63A52.22,52.22,0,0,1,233.81,4200c-14.32,14-34.93,18.83-52.15,28.13-15.53,8.39-30.73,20.3-37.43,37.17-5.55,13.94-4.81,31.56,4.56,43.73a33.56,33.56,0,0,0,8.2,7.57c1.62,1.06,3.13-1.54,1.52-2.59-13.67-9-17.11-27.23-13.23-42.26,4.61-17.87,19.7-30.7,35.13-39.5,16.54-9.42,35.81-14.19,50.9-26.09a55,55,0,0,0,16.71-22c3.4-8.12,5.35-17.79,3.93-26.58-1.61-10-12.53-13.38-20.22-17.93a232,232,0,0,1-26.29-18.13c-8.11-6.48-16.44-13.39-22.86-21.6-6.89-8.79-9.74-19.46-11.38-30.32-3.45-22.83-1.17-46.17,3-68.73a452.5,452.5,0,0,1,15.6-60.31,460.3,460.3,0,0,1,54.55-111.16q4.24-6.33,8.71-12.52c1.13-1.57-1.47-3.06-2.59-1.51Z" transform="translate(-69.2 -2101)"/><path class="cls-1" d="M158.42,4316.12c7.4,5.6,13,13.07,18,20.87,5.06,8.05,9.67,16.41,14.35,24.68,9.79,17.32,19.19,35,26.19,53.62,12.69,33.82,17.41,73.52.63,106.86-8.54,17-22.38,30.24-36.31,42.82s-27.92,25.23-35.51,42.82c-6.84,15.84-8.74,33.89-4.38,50.67A73.93,73.93,0,0,0,167,4697.71c15,11.77,33.71,15.07,51.94,18.75l15.58,3.14a130.58,130.58,0,0,1,13.41,3c4.05,1.27,8,3.27,10.58,6.77s3.45,7.85,3.6,12.1a69.07,69.07,0,0,1-1,12.43c-.28,1.89,2.61,2.7,2.89.79,1.15-7.81,2.21-16.37-1.19-23.79-3.57-7.8-11.56-10.84-19.41-12.56-10.09-2.2-20.26-4.1-30.38-6.14s-20.17-4.09-29.59-8.17a69.36,69.36,0,0,1-34.88-34.41c-7.57-16.18-8.37-34.82-3.29-51.85a79.08,79.08,0,0,1,12.34-24.57c5.91-7.95,13.2-14.78,20.52-21.41,14-12.72,28.55-25.41,38.48-41.76,19.1-31.43,17.66-71,6.87-105-6-19-14.77-36.93-24.28-54.36-4.73-8.65-9.64-17.19-14.57-25.73-4.52-7.83-9.18-15.66-15.13-22.51a62.56,62.56,0,0,0-9.55-8.92c-1.54-1.16-3,1.44-1.51,2.59Z" transform="translate(-69.2 -2101)"/><path class="cls-1" d="M260.31,4756.4c2,2.47,1.32,6.12.57,8.93-.92,3.45-2.11,6.85-3.36,10.2a136.38,136.38,0,0,1-9.34,19.88c-3.64,6.37-8.11,12.34-10.72,19.24s-2.88,14.41-3.22,21.71L233,4863.53c-.09,1.93,2.91,1.92,3,0l1.17-24.7c.36-7.69.41-15.63,3.08-23,2.53-6.95,7.17-12.95,10.8-19.34a141,141,0,0,0,9.57-20.64,74.51,74.51,0,0,0,3.64-11.65c.68-3.52.56-7.08-1.77-10-1.22-1.5-3.33.63-2.13,2.12Z" transform="translate(-69.2 -2101)"/><polygon class="cls-2" points="197.47 2803.95 127.47 2798.92 83.63 2853.72 66.79 2785.59 1.12 2760.84 60.72 2723.77 63.96 2653.67 117.63 2698.89 185.31 2680.31 158.89 2745.33 197.47 2803.95"/></svg>